<svg width="33" height="32" viewBox="0 0 33 32" fill="none" xmlns="http://www.w3.org/2000/svg">
<path d="M4.52064 11.9358C5.41648 11.8796 6.47316 12.0867 7.2151 12.5923C9.39045 14.0751 8.74958 16.4744 9.17456 18.5195C9.73669 21.2248 12.0055 23.0621 14.6954 23.4077C16.2357 23.5655 17.4845 23.3833 18.8632 24.2448C20.8101 25.4613 21.0035 28.3487 19.8069 30.1568C19.0734 31.265 18.0673 31.5368 16.8231 31.7868C12.8652 32.0258 12.3318 29.1167 12.1917 26.022C12.069 23.3158 9.57154 20.6671 6.9129 20.3344C5.35122 20.139 3.48479 20.4309 2.13644 19.3177C-0.754206 16.8543 0.782261 12.3113 4.52064 11.9358Z" fill="#F9B223"/>
<path d="M16.1113 0.193754C17.2344 0.0634963 18.2946 0.197904 19.2225 0.834826C21.377 2.31395 20.768 4.57255 21.1771 6.69371C21.5416 9.21258 24.2925 11.5572 26.8357 11.6581C29.4821 11.6695 32.1032 12.0044 32.4893 15.1836C32.7876 17.6395 31.5846 19.4498 29.1288 19.9445C28.0159 20.1406 27.0678 20.046 26.0942 19.4215C24.0013 18.0791 24.5011 15.5776 24.0746 13.513C23.5418 10.9338 21.3739 8.81247 18.7216 8.53663C17.3141 8.38929 15.6235 8.57558 14.4025 7.69203C11.3285 5.46751 12.4529 0.960374 16.1113 0.193754Z" fill="#F9B223"/>
<path d="M15.9429 11.8555C17.3745 11.6088 18.8281 12.1518 19.7477 13.2769C20.6674 14.4021 20.9107 15.9352 20.3846 17.29C19.8585 18.6447 18.6445 19.6115 17.2069 19.8205C15.0243 20.1378 12.992 18.6413 12.6462 16.4621C12.3003 14.2828 13.7693 12.2301 15.9429 11.8555Z" fill="#F9B223"/>
<path d="M4.01933 0.162145C5.45623 -0.0687587 6.9059 0.493776 7.81147 1.63361C8.71705 2.77344 8.93756 4.31331 8.38844 5.66162C7.83932 7.01001 6.60585 7.95717 5.16193 8.13931C2.98116 8.41443 0.98253 6.88957 0.670753 4.7127C0.358896 2.53592 1.84901 0.510936 4.01933 0.162145Z" fill="#E9222D"/>
<path d="M27.9034 0.169486C30.1 -0.18553 32.1677 1.30996 32.5193 3.50798C32.8709 5.70607 31.3729 7.7724 29.1754 8.12095C26.9824 8.4687 24.9221 6.97393 24.5713 4.78054C24.2204 2.58707 25.7115 0.523704 27.9034 0.169486Z" fill="#E9222D"/>
<path d="M27.8956 23.8645C30.0923 23.506 32.1628 24.9995 32.5168 27.1978C32.871 29.3962 31.3742 31.4647 29.1762 31.8148C26.984 32.1639 24.9233 30.6714 24.5702 28.479C24.217 26.2865 25.7049 24.222 27.8956 23.8645Z" fill="#E9222D"/>
<path d="M4.14945 23.869C5.58596 23.6855 7.01025 24.2881 7.87905 25.4472C8.74785 26.6064 8.92719 28.143 8.34855 29.4712C7.76991 30.7994 6.52264 31.714 5.08255 31.8663C2.88934 32.0983 0.918151 30.5209 0.662459 28.3293C0.406766 26.1379 1.96182 24.1487 4.14945 23.869Z" fill="#E9222D"/>
</svg>
