<svg width="190" height="49" viewBox="0 0 190 49" fill="none" xmlns="http://www.w3.org/2000/svg">
<path d="M5.91863 17.9861C7.28126 17.9006 8.88853 18.2157 10.0171 18.9848C13.3259 21.2401 12.3511 24.8896 12.9975 28.0004C13.8525 32.1152 17.3036 34.9099 21.3951 35.4356C23.738 35.6756 25.6375 35.3984 27.7345 36.7089C30.6958 38.5593 30.9901 42.9512 29.17 45.7013C28.0543 47.387 26.5239 47.8005 24.6314 48.1807C18.6111 48.5442 17.7999 44.1193 17.5867 39.4121C17.4002 35.2959 13.6014 31.267 9.5574 30.7609C7.18199 30.4637 4.34303 30.9076 2.29211 29.2144C-2.10473 25.4674 0.232333 18.5573 5.91863 17.9861Z" fill="#F9B223"/>
<path d="M23.5487 0.125781C25.2571 -0.072349 26.8697 0.132093 28.281 1.10089C31.5581 3.35073 30.6319 6.78619 31.2541 10.0126C31.8085 13.844 35.9928 17.4103 39.8612 17.5637C43.8865 17.5811 47.8734 18.0905 48.4606 22.9262C48.9143 26.6618 47.0845 29.4153 43.3491 30.1678C41.6563 30.4661 40.2142 30.3222 38.7332 29.3724C35.5499 27.3305 36.3101 23.5256 35.6614 20.3851C34.8509 16.462 31.5535 13.2354 27.5191 12.8158C25.3782 12.5917 22.8067 12.875 20.9495 11.5311C16.2737 8.14748 17.984 1.29186 23.5487 0.125781Z" fill="#F9B223"/>
<path d="M23.2926 17.864C25.4702 17.4887 27.6812 18.3146 29.08 20.026C30.4787 21.7375 30.8489 24.0695 30.0487 26.1302C29.2485 28.1908 27.4019 29.6613 25.2152 29.9793C21.8954 30.4618 18.8041 28.1855 18.2781 24.8709C17.752 21.5561 19.9864 18.4338 23.2926 17.864Z" fill="#F9B223"/>
<path d="M5.1561 0.0777022C7.34172 -0.273517 9.54675 0.582132 10.9242 2.31589C12.3016 4.04964 12.637 6.39187 11.8018 8.44273C10.9665 10.4937 9.09036 11.9344 6.89406 12.2114C3.57699 12.6299 0.536955 10.3105 0.062723 6.99937C-0.41163 3.68835 1.85493 0.608233 5.1561 0.0777022Z" fill="#E9222D"/>
<path d="M41.4852 0.0888681C44.8263 -0.451132 47.9714 1.82359 48.5062 5.16691C49.041 8.51035 46.7626 11.6534 43.42 12.1835C40.0842 12.7125 36.9505 10.4388 36.4168 7.10256C35.8831 3.76616 38.1511 0.627655 41.4852 0.0888681Z" fill="#E9222D"/>
<path d="M41.4733 36.1304C44.8147 35.5852 47.9639 37.8567 48.5025 41.2005C49.0412 44.5445 46.7645 47.6907 43.4212 48.2232C40.0868 48.7542 36.9522 46.4841 36.4151 43.1493C35.8779 39.8145 38.1411 36.6741 41.4733 36.1304Z" fill="#E9222D"/>
<path d="M5.35403 36.1373C7.53904 35.8581 9.70548 36.7748 11.027 38.5378C12.3485 40.3009 12.6213 42.6383 11.7411 44.6586C10.861 46.6787 8.9638 48.07 6.77333 48.3016C3.43732 48.6544 0.43903 46.2552 0.0501068 42.9217C-0.338817 39.5883 2.02652 36.5627 5.35403 36.1373Z" fill="#E9222D"/>
<path d="M120.803 36.1146C124.227 35.7523 127.298 38.2249 127.678 41.6472C128.056 45.0697 125.6 48.155 122.181 48.5509C118.738 48.9495 115.628 46.471 115.247 43.025C114.865 39.579 117.357 36.4796 120.803 36.1146ZM122.582 45.9941C124.611 45.3602 125.735 43.1916 125.081 41.1674C124.428 39.1433 122.25 38.0409 120.233 38.7141C118.243 39.3781 117.159 41.5213 117.804 43.5179C118.448 45.5146 120.58 46.6194 122.582 45.9941Z" fill="#2A2A2A"/>
<path d="M143.849 36.1194C147.281 35.7926 150.328 38.3111 150.655 41.7448C150.982 45.1786 148.464 48.2273 145.032 48.5542C141.6 48.8811 138.552 46.3625 138.225 42.9286C137.899 39.4949 140.416 36.4462 143.849 36.1194ZM145.54 46.0259C146.867 45.6303 147.878 44.5518 148.188 43.2023C148.498 41.8528 148.058 40.4407 147.038 39.5057C146.017 38.5706 144.572 38.2569 143.255 38.6845C141.254 39.3346 140.148 41.4741 140.773 43.4842C141.399 45.4942 143.524 46.6273 145.54 46.0259Z" fill="#2A2A2A"/>
<path d="M119.538 20.1183C121.183 20.104 122.849 20.0224 124.488 20.1805C127.429 20.4643 128.876 22.7589 127.925 25.5278C127.65 26.3321 126.888 26.89 126.241 27.3734C127.299 28.8722 128.459 30.5937 129.599 32.0079C128.791 31.9228 127.627 31.9482 126.79 31.9423C125.77 30.7483 124.628 29.1511 123.666 27.8778C123.03 27.8902 122.554 27.8636 121.92 27.817C121.967 29.1967 121.925 30.6179 121.902 32.0015C120.977 31.9448 120.468 31.9496 119.547 31.9964C119.469 28.113 119.521 24.0074 119.538 20.1183ZM121.948 25.6744C122.984 25.669 124.369 25.7829 125.219 25.2505C127.055 22.2901 123.852 22.2902 121.927 22.3157L121.948 25.6744Z" fill="#2A2A2A"/>
<path d="M87.4432 26.2928C88.7182 24.6018 90.8613 21.5712 92.4295 20.06C92.5885 19.9076 92.8664 19.9606 93.069 20.029C93.3882 20.7773 93.2292 30.445 93.2231 32.0009C92.3616 31.9287 91.8143 32.1215 91.0169 31.9187C90.6868 31.6361 90.7862 31.7151 90.7189 31.1694L90.7408 25.7638C86.9375 30.7475 87.8613 30.3263 84.0973 25.7654C84.0236 27.7628 84.0479 29.9871 84.034 31.9979C83.1065 31.9419 82.6062 31.9489 81.683 31.9991C81.5689 28.1569 81.616 23.6453 81.6935 19.7964C83.0785 20.0655 86.2189 24.8391 87.4432 26.2928Z" fill="#2A2A2A"/>
<path d="M157.975 36.2015C160.373 36.0024 161.864 37.0844 163.427 38.7164C162.84 39.2159 162.257 39.7214 161.681 40.2328C160.99 39.47 160.559 38.9858 159.553 38.6832C157.465 38.0559 155.356 39.0537 154.708 41.1775C154.4 42.2031 154.514 43.3093 155.025 44.2505C155.504 45.1454 156.274 45.7975 157.248 46.0885C158.332 46.4089 159.498 46.2921 160.498 45.7629C161.194 45.3863 161.932 44.8286 161.447 44.0005C160.981 43.7666 158.902 43.8901 158.267 43.9088L158.284 41.7074C160.208 41.7159 162.13 41.7142 164.052 41.7021C163.993 42.8604 164.017 44.2723 163.988 45.4666C163.869 45.6387 163.745 45.8072 163.617 45.972C162.555 47.3197 160.765 48.2653 159.061 48.4533C157.308 48.6444 155.55 48.1213 154.186 47.0021C150.048 43.6222 152.031 36.7703 157.975 36.2015Z" fill="#2A2A2A"/>
<path d="M103.095 36.0933C103.204 36.1071 103.31 36.1268 103.416 36.1485C104.441 36.3554 109.573 42.2115 110.72 43.2767L110.718 36.4456C111.48 36.4031 112.44 36.4231 113.218 36.4173C113.191 36.7203 113.194 36.9879 113.19 37.2897C113.149 41.0749 113.291 44.8932 113.121 48.6739C112.821 48.65 112.535 48.5384 112.297 48.3532C111.769 47.949 110.404 46.4309 109.895 45.8835L105.482 41.1336C105.632 42.8564 105.524 46.446 105.518 48.3201C104.71 48.2498 103.89 48.2819 103.078 48.2978C103.052 44.2296 103.057 40.1614 103.095 36.0933Z" fill="#2A2A2A"/>
<path d="M64.7466 20.1221L67.1501 20.095C67.1207 21.4841 67.3107 31.4787 66.9944 31.9684L66.5009 31.9646C65.9167 31.9446 65.3432 31.9788 64.7594 32.0048C64.7305 30.3004 64.7264 28.5958 64.747 26.8913C63.007 26.8812 61.267 26.8829 59.5269 26.8966C59.5444 28.6065 59.5488 30.3164 59.5402 32.0263C58.7405 31.9364 57.9379 31.9635 57.1335 31.973L57.111 20.1347L59.5705 20.1026C59.4802 21.3567 59.5314 23.3469 59.5265 24.6365C61.2314 24.6021 63.0832 24.6348 64.798 24.636C64.6917 23.1974 64.7366 21.5787 64.7466 20.1221Z" fill="#2A2A2A"/>
<path d="M90.4649 36.4376L92.8688 36.4197C92.8045 37.7634 92.8591 39.5388 92.8603 40.9152L98.0686 40.909C97.9897 39.5307 98.0698 37.9222 98.0055 36.4671C98.787 36.4078 99.7105 36.4302 100.505 36.4303C100.369 39.1755 100.525 42.149 100.463 44.9132C100.441 45.9147 100.508 47.2167 100.422 48.19L100.161 48.284C99.5005 48.2615 98.7287 48.287 98.0601 48.2927L98.0504 43.1053C96.3188 43.1109 94.5871 43.1052 92.8542 43.0884L92.8506 48.3088C92.0861 48.2586 91.2266 48.2874 90.454 48.2961C90.4325 44.7434 90.2905 39.9209 90.4649 36.4376Z" fill="#2A2A2A"/>
<path d="M100.145 19.8068L100.571 19.8873C101.355 20.342 105.504 30.4917 106.222 32.0067C105.507 31.9203 104.174 31.9474 103.412 31.9406C103.204 31.458 103.057 30.9323 102.903 30.4286L98.0869 30.4415C97.883 30.9322 97.6099 31.4875 97.3842 31.9761C96.4887 31.943 95.5931 31.9378 94.6976 31.9605C96.1671 28.656 97.6755 25.3719 99.0686 22.0342C99.3816 21.2849 99.7226 20.4996 100.145 19.8068ZM98.8744 28.3876L100.357 28.3989L101.992 28.3897C101.767 27.8336 100.655 24.9529 100.399 24.6871C99.9071 25.9274 99.3998 27.1609 98.8744 28.3876Z" fill="#2A2A2A"/>
<path d="M135.231 19.8094C135.346 19.8185 135.471 19.8288 135.58 19.8673C136.415 20.1589 140.525 30.5731 141.194 31.9933C140.213 31.9249 139.536 31.9441 138.565 31.9837L137.926 30.4788C137.227 30.4352 136.354 30.4466 135.641 30.436L133.096 30.4331C132.891 30.9352 132.631 31.4813 132.407 31.981C131.459 31.9481 130.786 31.9287 129.832 31.9965C130.139 31.0875 131.033 29.1024 131.455 28.1585C132.626 25.5469 133.87 22.2807 135.231 19.8094ZM133.993 28.3972L135.731 28.3973L136.978 28.3819C136.786 27.8841 135.716 24.8777 135.54 24.7142C135.004 25.7212 134.395 27.2992 133.993 28.3972Z" fill="#2A2A2A"/>
<path d="M111.912 19.8117C112.32 19.8419 112.59 19.9564 112.794 20.3281C113.562 21.7346 114.178 23.2349 114.809 24.7054C115.831 27.1519 116.892 29.5815 117.994 31.993C117.221 31.9256 116.097 31.9523 115.298 31.9479L114.724 30.4445L109.867 30.4287L109.224 31.9699C108.3 31.9453 107.51 31.9108 106.585 32.0019C107.792 28.7554 109.421 25.6133 110.739 22.4061C111.094 21.5418 111.472 20.631 111.912 19.8117ZM110.753 28.3847L112.25 28.3994L113.8 28.3836C113.599 27.9038 112.4 24.8529 112.219 24.7083C111.58 25.9596 111.301 27.2703 110.753 28.3847Z" fill="#2A2A2A"/>
<path d="M74.0541 19.7985L74.5804 19.9458C75.3568 20.6649 79.3656 30.239 80.0491 31.9862C79.3051 31.9242 78.1935 31.9479 77.4222 31.9411C77.2242 31.469 77.03 30.9299 76.8437 30.4474L74.5099 30.4366C73.677 30.441 72.8312 30.4274 71.997 30.4219L71.3438 31.9727C70.3838 31.9486 69.6468 31.9369 68.6817 31.9964L74.0541 19.7985ZM72.8685 28.3848L74.6009 28.3995C74.9095 28.399 75.5912 28.4483 75.8048 28.294C75.7171 27.8647 74.5754 24.9058 74.3451 24.7067C73.7592 25.911 73.4472 27.2187 72.8685 28.3848Z" fill="#2A2A2A"/>
<path d="M171.253 36.4498C173.714 36.3498 176.7 36.4118 179.191 36.4435C179.143 37.1106 179.167 37.9255 179.171 38.606C177.431 38.5425 175.364 38.5839 173.6 38.5802C173.636 39.3494 173.625 40.2512 173.635 41.0318L177.702 41.012L177.68 43.1263C176.523 43.051 174.822 43.0992 173.611 43.0886L173.627 44.4586L173.613 46.0811L179.407 46.0652L179.394 48.3035C176.936 48.1861 173.628 48.2225 171.151 48.296C171.149 47.1023 171.039 36.8336 171.253 36.4498Z" fill="#2A2A2A"/>
<path d="M67.5615 36.442C70.0037 36.3782 73.1332 36.382 75.5547 36.4555C75.507 37.1216 75.541 37.9215 75.5533 38.6003C73.7492 38.5574 71.7893 38.5888 69.9739 38.5875C70.008 39.4321 69.9878 40.1824 69.9637 41.0229L74.0615 41.0135L74.0501 43.1586C72.7598 43.0526 71.2835 43.1121 69.974 43.1353L69.9854 44.2794L69.9659 46.0682C71.9139 46.0442 73.8063 46.107 75.7778 46.0499C75.7632 46.7895 75.7748 47.5648 75.7741 48.3078C73.3649 48.1598 69.9984 48.2477 67.5339 48.2853C67.5815 45.106 67.4803 41.9013 67.5093 38.7197C67.5161 37.9801 67.4627 37.1675 67.5615 36.442Z" fill="#2A2A2A"/>
<path d="M82.7336 36.1991C85.3416 36.0037 86.8281 37.2273 88.4166 39.0584C87.7797 39.5408 87.2034 39.985 86.5891 40.5008C85.7272 39.2986 84.9991 38.6426 83.4846 38.5359C81.0739 38.3661 79.4424 39.8242 79.3782 42.2484C79.3499 43.3149 79.745 44.3494 80.4771 45.1253C82.1719 46.8886 84.3946 46.4524 86.0219 44.8662C86.3259 44.4906 86.216 44.5138 86.6158 44.3884C87.1217 44.5219 87.8763 45.1661 88.4098 45.5117C88.2838 45.7221 88.1341 45.9573 87.9809 46.1485C86.9455 47.4581 85.4222 48.2898 83.7612 48.4525C82.0694 48.6403 80.3722 48.149 79.0421 47.0863C77.7998 46.076 77.0154 44.6087 76.8651 43.0142C76.6813 41.3704 77.1658 39.7219 78.2092 38.4389C79.4491 36.9345 80.8574 36.3867 82.7336 36.1991Z" fill="#2A2A2A"/>
<path d="M184.896 36.1972C186.877 36.0895 187.906 37.0078 189.134 38.3681C188.51 38.8883 188.055 39.2872 187.345 39.7019C186.519 38.6681 185.145 38.0382 183.906 38.7478C183.009 40.0025 185.227 41.0961 186.164 41.3833C191.182 42.9223 190.098 48.4375 184.939 48.5118C182.764 48.2072 181.848 47.5615 180.524 45.8722C181.089 45.4673 181.67 45.0111 182.227 44.5879C183.205 45.7298 185.087 47.0573 186.511 45.8443C188.065 43.0732 181.156 43.1863 181.189 39.941C181.217 37.335 182.506 36.4554 184.896 36.1972Z" fill="#2A2A2A"/>
<path d="M56.0308 36.4413C59.3612 36.4115 62.6919 36.4124 66.0223 36.444C65.9577 37.3042 65.9617 37.7465 66.0143 38.6092C64.8419 38.5542 63.3919 38.5902 62.1988 38.5879C62.2494 40.4064 62.2032 42.4689 62.2028 44.3056C62.19 45.6426 62.1921 46.9797 62.2093 48.3167C61.4195 48.2537 60.528 48.2837 59.7281 48.2922L59.7332 38.6011C58.4916 38.5718 57.2017 38.5919 55.9559 38.5954C55.9484 38.0799 55.8858 36.869 56.0308 36.4413Z" fill="#2A2A2A"/>
<path d="M129.743 36.4451C130.548 36.4199 131.386 36.4305 132.193 36.4292C132.037 39.1143 132.162 43.265 132.159 46.0761C133.744 46.0182 135.681 46.0838 137.318 46.0579C137.286 46.7844 137.309 47.5767 137.317 48.3088C135.107 48.1798 131.966 48.2342 129.725 48.2893C129.719 44.6541 129.584 39.9773 129.743 36.4451Z" fill="#2A2A2A"/>
<path d="M166.097 36.4552C166.878 36.406 167.805 36.424 168.599 36.4197C168.48 40.2942 168.727 44.4218 168.56 48.2965C167.738 48.2628 166.849 48.2853 166.02 48.2906C166.017 47.1144 165.905 36.8491 166.097 36.4552Z" fill="#2A2A2A"/>
</svg>
